<?xml version="1.0" encoding="utf-8"?>
<!-- Svg Vector Icons : http://www.onlinewebfonts.com/icon -->
<!DOCTYPE svg PUBLIC "-//W3C//DTD SVG 1.1//EN" "http://www.w3.org/Graphics/SVG/1.1/DTD/svg11.dtd">
<svg version="1.1" xmlns="http://www.w3.org/2000/svg" xmlns:xlink="http://www.w3.org/1999/xlink" x="0px" y="0px" viewBox="0 0 256 256" enable-background="new 0 0 256 256" xml:space="preserve">
<metadata> Svg Vector Icons : http://www.onlinewebfonts.com/icon </metadata>
<g><g><g><path fill="#000000" d="M64.3,54.1v6.1h11.2h11.2v4.4v4.4l-14.4,0.1l-14.5,0.2l-0.2,7.9l-0.2,8H45.3H33.1v20v20h-5.4h-5.4v-13.9V97.6h-6.1H10v33.6v33.6h6.1h6.1l0.1-13.8l0.2-13.7l5.3-0.2l5.2-0.2V157v20h13.9h13.9l10.7,14.7l10.8,14.8l50.7,0.2l50.7,0.1l1.1-3.5c0.5-2,2.3-8.4,3.9-14.1l3-10.5h3.3h3.3l5.9,14.6l5.8,14.6h17.9H246v-62.5V83l-17.7-0.2l-17.8-0.1l-3.7,9c-2,5-4.8,11.7-6,15l-2.3,6l-3.3-0.2l-3.3-0.2l-3.3-11.5c-1.8-6.4-3.6-12.7-4-14.1l-0.7-2.5H175h-8.8v-7.5v-7.5h-14.3h-14.3v-4.4v-4.4h11.2h11.2v-6.1V48h-47.9H64.3V54.1z M154.5,88.9l0.2,7.3h10h10l4,14.3l4,14.3h12h12.1l6-14.9l6-15l7.5,0.2l7.5,0.2l0.2,50.4l0.1,50.5h-7.7h-7.7l-6-14.9l-6-14.9h-12h-12l-4.1,14.3l-4,14.3l-43.1-0.1l-43.1-0.2l-10.8-14.8L67,164.8H56.1H45.3v-33.6V97.6h12.2h12.2v-8.1v-8.1l42.3,0.1l42.2,0.2L154.5,88.9z"/></g></g></g>
</svg>
